<?xml version="1.0" encoding="UTF-8"?>
<svg width="100mm" height="100mm" viewBox="0 0 100 100" version="1.1" xmlns="http://www.w3.org/2000/svg">
  <rect x="2" y="2" width="96" height="96" rx="48" fill="#326CE5"/>
  <circle cx="50" cy="50" r="12" fill="none" stroke="#ffffff" stroke-width="4"/>
  <line x1="50" y1="18" x2="50" y2="30" stroke="#ffffff" stroke-width="4" stroke-linecap="round"/>
  <line x1="50" y1="70" x2="50" y2="82" stroke="#ffffff" stroke-width="4" stroke-linecap="round"/>
  <line x1="18" y1="50" x2="30" y2="50" stroke="#ffffff" stroke-width="4" stroke-linecap="round"/>
  <line x1="70" y1="50" x2="82" y2="50" stroke="#ffffff" stroke-width="4" stroke-linecap="round"/>
  <line x1="30" y1="30" x2="38" y2="38" stroke="#ffffff" stroke-width="4" stroke-linecap="round"/>
  <line x1="62" y1="62" x2="70" y2="70" stroke="#ffffff" stroke-width="4" stroke-linecap="round"/>
  <line x1="70" y1="30" x2="62" y2="38" stroke="#ffffff" stroke-width="4" stroke-linecap="round"/>
  <line x1="38" y1="62" x2="30" y2="70" stroke="#ffffff" stroke-width="4" stroke-linecap="round"/>
  <circle cx="50" cy="24" r="3" fill="#ffffff"/>
  <circle cx="50" cy="76" r="3" fill="#ffffff"/>
  <circle cx="24" cy="50" r="3" fill="#ffffff"/>
  <circle cx="76" cy="50" r="3" fill="#ffffff"/>
  <circle cx="34" cy="34" r="3" fill="#ffffff"/>
  <circle cx="66" cy="66" r="3" fill="#ffffff"/>
  <circle cx="66" cy="34" r="3" fill="#ffffff"/>
  <circle cx="34" cy="66" r="3" fill="#ffffff"/>
</svg>
